<?xml version="1.0" encoding="utf-8"?>
<!-- Uploaded to: SVG Repo, www.svgrepo.com, Generator: SVG Repo Mixer Tools -->
<svg fill="#000000" width="800px" height="800px" viewBox="0 0 32 32" version="1.1" xmlns="http://www.w3.org/2000/svg">
<title>target</title>
<path d="M30 15.25h-3.326c-0.385-5.319-4.605-9.539-9.889-9.922l-0.035-0.002v-3.326c0-0.414-0.336-0.75-0.75-0.75s-0.75 0.336-0.75 0.75v0 3.326c-5.319 0.385-9.539 4.605-9.922 9.889l-0.002 0.035h-3.326c-0.414 0-0.75 0.336-0.75 0.75s0.336 0.75 0.75 0.75v0h3.326c0.385 5.319 4.605 9.539 9.889 9.922l0.035 0.002v3.326c0 0.414 0.336 0.75 0.75 0.75s0.75-0.336 0.75-0.75v0-3.326c5.319-0.385 9.539-4.605 9.922-9.889l0.002-0.035h3.326c0.414 0 0.75-0.336 0.75-0.75s-0.336-0.75-0.75-0.75v0zM16 25.25c-5.109 0-9.25-4.141-9.25-9.25s4.141-9.25 9.25-9.25c5.109 0 9.25 4.141 9.25 9.25v0c-0.006 5.106-4.144 9.244-9.249 9.25h-0.001zM16 11.25c-2.623 0-4.75 2.127-4.75 4.75s2.127 4.75 4.75 4.75c2.623 0 4.75-2.127 4.75-4.75v0c-0.003-2.622-2.128-4.747-4.75-4.75h-0zM16 19.25c-1.795 0-3.25-1.455-3.25-3.25s1.455-3.25 3.25-3.25c1.795 0 3.25 1.455 3.25 3.25v0c-0.002 1.794-1.456 3.248-3.25 3.25h-0z"></path>
</svg>